<?xml version="1.0" encoding="UTF-8" standalone="no"?><svg xmlns="http://www.w3.org/2000/svg" xmlns:xlink="http://www.w3.org/1999/xlink" fill="#eeeee6" height="788.8" preserveAspectRatio="xMidYMid meet" version="1" viewBox="0.0 0.0 267.2 788.8" width="267.2" zoomAndPan="magnify"><g id="change1_1"><path d="M228.8,116.7C203.7,41.4,169.9,0,133.6,0S63.5,41.5,38.4,116.7C13.6,190.9,0,289.6,0,394.4c0,104.9,13.6,203.5,38.4,277.7 c25.1,75.3,58.9,116.7,95.2,116.7s70.2-41.4,95.2-116.7c24.8-74.2,38.4-172.9,38.4-277.7C267.2,289.5,253.6,190.9,228.8,116.7z M223.1,670.3c-11.8,35.7-25.7,63.6-41,83c-15.5,19.6-31.8,29.6-48.5,29.6c-16.7,0-33-10-48.5-29.6c-15.3-19.5-29.1-47.4-41-83 C19.5,596.6,6,498.7,6,394.5c0-104.3,13.5-202.2,38.1-275.8c11.8-35.7,25.7-63.6,41-83c15.5-19.6,31.8-29.6,48.5-29.6 c16.7,0,33,10,48.5,29.6c15.3,19.5,29.1,47.4,41,83c24.6,73.7,38.1,171.6,38.1,275.8C261.2,498.8,247.7,596.7,223.1,670.3z" fill="inherit"/></g></svg>